ISO-10303-21;
HEADER;
FILE_DESCRIPTION((''),'2;1');
FILE_NAME('I-0510-05_REVX01','2026-08-07T15:57:21',('LSD'),(''),
'CREO PARAMETRIC BY PTC INC, 2020053','CREO PARAMETRIC BY PTC INC, 2020053','');
FILE_SCHEMA(('AUTOMOTIVE_DESIGN { 1 0 10303 214 1 1 1 1 }'));
ENDSEC;
DATA;
#17=CARTESIAN_POINT('',(-2.20000036E1,-1.71032444E0,-3.440013584E1));
#18=DIRECTION('',(0.E0,1.E0,0.E0));
#19=DIRECTION('',(1.E0,0.E0,0.E0));
#20=AXIS2_PLACEMENT_3D('',#17,#18,#19);
#22=DRAUGHTING_PRE_DEFINED_CURVE_FONT('continuous');
#23=CURVE_STYLE('',#22,POSITIVE_LENGTH_MEASURE(2.E-2),#9);
#24=PRESENTATION_STYLE_ASSIGNMENT((#23));
#25=STYLED_ITEM('',(#24),#21);
#26=CARTESIAN_POINT('',(-2.20000036E1,-1.71032444E0,-3.440013584E1));
#27=DIRECTION('',(0.E0,1.E0,0.E0));
#28=DIRECTION('',(-1.E0,0.E0,0.E0));
#29=AXIS2_PLACEMENT_3D('',#26,#27,#28);
#31=CURVE_STYLE('',#22,POSITIVE_LENGTH_MEASURE(2.E-2),#9);
#32=PRESENTATION_STYLE_ASSIGNMENT((#31));
#33=STYLED_ITEM('',(#32),#30);
#34=CARTESIAN_POINT('',(2.19999973E1,-1.71032444E0,-3.440013584E1));
#35=DIRECTION('',(0.E0,1.E0,0.E0));
#36=DIRECTION('',(1.E0,0.E0,0.E0));
#37=AXIS2_PLACEMENT_3D('',#34,#35,#36);
#39=CURVE_STYLE('',#22,POSITIVE_LENGTH_MEASURE(2.E-2),#9);
#40=PRESENTATION_STYLE_ASSIGNMENT((#39));
#41=STYLED_ITEM('',(#40),#38);
#42=CARTESIAN_POINT('',(2.19999973E1,-1.71032444E0,-3.440013584E1));
#43=DIRECTION('',(0.E0,1.E0,0.E0));
#44=DIRECTION('',(-1.E0,0.E0,0.E0));
#45=AXIS2_PLACEMENT_3D('',#42,#43,#44);
#47=CURVE_STYLE('',#22,POSITIVE_LENGTH_MEASURE(2.E-2),#9);
#48=PRESENTATION_STYLE_ASSIGNMENT((#47));
#49=STYLED_ITEM('',(#48),#46);
#50=DIRECTION('',(0.E0,0.E0,1.E0));
#51=VECTOR('',#50,7.E0);
#52=CARTESIAN_POINT('',(2.5E1,-1.71032444E0,-3.740013584E1));
#53=LINE('',#52,#51);
#54=CURVE_STYLE('',#22,POSITIVE_LENGTH_MEASURE(2.E-2),#9);
#55=PRESENTATION_STYLE_ASSIGNMENT((#54));
#56=STYLED_ITEM('',(#55),#53);
#57=DIRECTION('',(-1.E0,0.E0,0.E0));
#58=VECTOR('',#57,1.85E1);
#59=CARTESIAN_POINT('',(2.5E1,-1.71032444E0,-3.040013584E1));
#60=LINE('',#59,#58);
#61=CURVE_STYLE('',#22,POSITIVE_LENGTH_MEASURE(2.E-2),#9);
#62=PRESENTATION_STYLE_ASSIGNMENT((#61));
#63=STYLED_ITEM('',(#62),#60);
#64=DIRECTION('',(0.E0,0.E0,1.E0));
#65=VECTOR('',#64,1.5E1);
#66=CARTESIAN_POINT('',(6.5E0,-1.71032444E0,-3.040013584E1));
#67=LINE('',#66,#65);
#68=CURVE_STYLE('',#22,POSITIVE_LENGTH_MEASURE(2.E-2),#9);
#69=PRESENTATION_STYLE_ASSIGNMENT((#68));
#70=STYLED_ITEM('',(#69),#67);
#71=DIRECTION('',(-1.E0,0.E0,0.E0));
#72=VECTOR('',#71,1.3E1);
#73=CARTESIAN_POINT('',(6.5E0,-1.71032444E0,-1.540013584E1));
#74=LINE('',#73,#72);
#75=CURVE_STYLE('',#22,POSITIVE_LENGTH_MEASURE(2.E-2),#9);
#76=PRESENTATION_STYLE_ASSIGNMENT((#75));
#77=STYLED_ITEM('',(#76),#74);
#78=DIRECTION('',(0.E0,0.E0,-1.E0));
#79=VECTOR('',#78,1.5E1);
#80=CARTESIAN_POINT('',(-6.5E0,-1.71032444E0,-1.540013584E1));
#81=LINE('',#80,#79);
#82=CURVE_STYLE('',#22,POSITIVE_LENGTH_MEASURE(2.E-2),#9);
#83=PRESENTATION_STYLE_ASSIGNMENT((#82));
#84=STYLED_ITEM('',(#83),#81);
#85=DIRECTION('',(-1.E0,0.E0,0.E0));
#86=VECTOR('',#85,1.85E1);
#87=CARTESIAN_POINT('',(-6.5E0,-1.71032444E0,-3.040013584E1));
#88=LINE('',#87,#86);
#89=CURVE_STYLE('',#22,POSITIVE_LENGTH_MEASURE(2.E-2),#9);
#90=PRESENTATION_STYLE_ASSIGNMENT((#89));
#91=STYLED_ITEM('',(#90),#88);
#92=DIRECTION('',(0.E0,0.E0,-1.E0));
#93=VECTOR('',#92,7.E0);
#94=CARTESIAN_POINT('',(-2.5E1,-1.71032444E0,-3.040013584E1));
#95=LINE('',#94,#93);
#96=CURVE_STYLE('',#22,POSITIVE_LENGTH_MEASURE(2.E-2),#9);
#97=PRESENTATION_STYLE_ASSIGNMENT((#96));
#98=STYLED_ITEM('',(#97),#95);
#99=DIRECTION('',(1.E0,0.E0,0.E0));
#100=VECTOR('',#99,5.E1);
#101=CARTESIAN_POINT('',(-2.5E1,-1.71032444E0,-3.740013584E1));
#102=LINE('',#101,#100);
#103=CURVE_STYLE('',#22,POSITIVE_LENGTH_MEASURE(2.E-2),#9);
#104=PRESENTATION_STYLE_ASSIGNMENT((#103));
#105=STYLED_ITEM('',(#104),#102);
#106=DIRECTION('',(0.E0,-1.E0,0.E0));
#107=VECTOR('',#106,1.4E0);
#108=CARTESIAN_POINT('',(-2.03500036E1,-1.71032444E0,-3.440013584E1));
#109=LINE('',#108,#107);
#110=CURVE_STYLE('',#22,POSITIVE_LENGTH_MEASURE(2.E-2),#9);
#111=PRESENTATION_STYLE_ASSIGNMENT((#110));
#112=STYLED_ITEM('',(#111),#109);
#113=DIRECTION('',(0.E0,-1.E0,0.E0));
#114=VECTOR('',#113,1.4E0);
#115=CARTESIAN_POINT('',(-2.36500036E1,-1.71032444E0,-3.440013584E1));
#116=LINE('',#115,#114);
#117=CURVE_STYLE('',#22,POSITIVE_LENGTH_MEASURE(2.E-2),#9);
#118=PRESENTATION_STYLE_ASSIGNMENT((#117));
#119=STYLED_ITEM('',(#118),#116);
#120=CARTESIAN_POINT('',(-2.20000036E1,-3.11032444E0,-3.440013584E1));
#121=DIRECTION('',(0.E0,1.E0,0.E0));
#122=DIRECTION('',(1.E0,0.E0,0.E0));
#123=AXIS2_PLACEMENT_3D('',#120,#121,#122);
#125=CURVE_STYLE('',#22,POSITIVE_LENGTH_MEASURE(2.E-2),#9);
#126=PRESENTATION_STYLE_ASSIGNMENT((#125));
#127=STYLED_ITEM('',(#126),#124);
#128=CARTESIAN_POINT('',(-2.20000036E1,-3.11032444E0,-3.440013584E1));
#129=DIRECTION('',(0.E0,1.E0,0.E0));
#130=DIRECTION('',(-1.E0,0.E0,0.E0));
#131=AXIS2_PLACEMENT_3D('',#128,#129,#130);
#133=CURVE_STYLE('',#22,POSITIVE_LENGTH_MEASURE(2.E-2),#9);
#134=PRESENTATION_STYLE_ASSIGNMENT((#133));
#135=STYLED_ITEM('',(#134),#132);
#136=CARTESIAN_POINT('',(2.19999973E1,-3.11032444E0,-3.440013584E1));
#137=DIRECTION('',(0.E0,1.E0,0.E0));
#138=DIRECTION('',(1.E0,0.E0,0.E0));
#139=AXIS2_PLACEMENT_3D('',#136,#137,#138);
#141=CURVE_STYLE('',#22,POSITIVE_LENGTH_MEASURE(2.E-2),#9);
#142=PRESENTATION_STYLE_ASSIGNMENT((#141));
#143=STYLED_ITEM('',(#142),#140);
#144=CARTESIAN_POINT('',(2.19999973E1,-3.11032444E0,-3.440013584E1));
#145=DIRECTION('',(0.E0,1.E0,0.E0));
#146=DIRECTION('',(-1.E0,0.E0,0.E0));
#147=AXIS2_PLACEMENT_3D('',#144,#145,#146);
#149=CURVE_STYLE('',#22,POSITIVE_LENGTH_MEASURE(2.E-2),#9);
#150=PRESENTATION_STYLE_ASSIGNMENT((#149));
#151=STYLED_ITEM('',(#150),#148);
#152=DIRECTION('',(1.E0,0.E0,0.E0));
#153=VECTOR('',#152,1.3E1);
#154=CARTESIAN_POINT('',(-6.5E0,-3.11032444E0,-2.640013584E1));
#155=LINE('',#154,#153);
#156=CURVE_STYLE('',#22,POSITIVE_LENGTH_MEASURE(2.E-2),#9);
#157=PRESENTATION_STYLE_ASSIGNMENT((#156));
#158=STYLED_ITEM('',(#157),#155);
#159=DIRECTION('',(0.E0,0.E0,1.E0));
#160=VECTOR('',#159,4.E0);
#161=CARTESIAN_POINT('',(6.5E0,-3.11032444E0,-3.040013584E1));
#162=LINE('',#161,#160);
#163=CURVE_STYLE('',#22,POSITIVE_LENGTH_MEASURE(2.E-2),#9);
#164=PRESENTATION_STYLE_ASSIGNMENT((#163));
#165=STYLED_ITEM('',(#164),#162);
#166=DIRECTION('',(-1.E0,0.E0,0.E0));
#167=VECTOR('',#166,1.85E1);
#168=CARTESIAN_POINT('',(2.5E1,-3.11032444E0,-3.040013584E1));
#169=LINE('',#168,#167);
#170=CURVE_STYLE('',#22,POSITIVE_LENGTH_MEASURE(2.E-2),#9);
#171=PRESENTATION_STYLE_ASSIGNMENT((#170));
#172=STYLED_ITEM('',(#171),#169);
#173=DIRECTION('',(0.E0,0.E0,1.E0));
#174=VECTOR('',#173,7.E0);
#175=CARTESIAN_POINT('',(2.5E1,-3.11032444E0,-3.740013584E1));
#176=LINE('',#175,#174);
#177=CURVE_STYLE('',#22,POSITIVE_LENGTH_MEASURE(2.E-2),#9);
#178=PRESENTATION_STYLE_ASSIGNMENT((#177));
#179=STYLED_ITEM('',(#178),#176);
#180=DIRECTION('',(1.E0,0.E0,0.E0));
#181=VECTOR('',#180,5.E1);
#182=CARTESIAN_POINT('',(-2.5E1,-3.11032444E0,-3.740013584E1));
#183=LINE('',#182,#181);
#184=CURVE_STYLE('',#22,POSITIVE_LENGTH_MEASURE(2.E-2),#9);
#185=PRESENTATION_STYLE_ASSIGNMENT((#184));
#186=STYLED_ITEM('',(#185),#183);
#187=DIRECTION('',(0.E0,0.E0,-1.E0));
#188=VECTOR('',#187,7.E0);
#189=CARTESIAN_POINT('',(-2.5E1,-3.11032444E0,-3.040013584E1));
#190=LINE('',#189,#188);
#191=CURVE_STYLE('',#22,POSITIVE_LENGTH_MEASURE(2.E-2),#9);
#192=PRESENTATION_STYLE_ASSIGNMENT((#191));
#193=STYLED_ITEM('',(#192),#190);
#194=DIRECTION('',(-1.E0,0.E0,0.E0));
#195=VECTOR('',#194,1.85E1);
#196=CARTESIAN_POINT('',(-6.5E0,-3.11032444E0,-3.040013584E1));
#197=LINE('',#196,#195);
#198=CURVE_STYLE('',#22,POSITIVE_LENGTH_MEASURE(2.E-2),#9);
#199=PRESENTATION_STYLE_ASSIGNMENT((#198));
#200=STYLED_ITEM('',(#199),#197);
#201=DIRECTION('',(0.E0,0.E0,-1.E0));
#202=VECTOR('',#201,4.E0);
#203=CARTESIAN_POINT('',(-6.5E0,-3.11032444E0,-2.640013584E1));
#204=LINE('',#203,#202);
#205=CURVE_STYLE('',#22,POSITIVE_LENGTH_MEASURE(2.E-2),#9);
#206=PRESENTATION_STYLE_ASSIGNMENT((#205));
#207=STYLED_ITEM('',(#206),#204);
#208=DIRECTION('',(0.E0,-1.E0,0.E0));
#209=VECTOR('',#208,1.4E0);
#210=CARTESIAN_POINT('',(2.36499973E1,-1.71032444E0,-3.440013584E1));
#211=LINE('',#210,#209);
#212=CURVE_STYLE('',#22,POSITIVE_LENGTH_MEASURE(2.E-2),#9);
#213=PRESENTATION_STYLE_ASSIGNMENT((#212));
#214=STYLED_ITEM('',(#213),#211);
#215=DIRECTION('',(0.E0,-1.E0,0.E0));
#216=VECTOR('',#215,1.4E0);
#217=CARTESIAN_POINT('',(2.03499973E1,-1.71032444E0,-3.440013584E1));
#218=LINE('',#217,#216);
#219=CURVE_STYLE('',#22,POSITIVE_LENGTH_MEASURE(2.E-2),#9);
#220=PRESENTATION_STYLE_ASSIGNMENT((#219));
#221=STYLED_ITEM('',(#220),#218);
#222=DIRECTION('',(0.E0,-1.E0,0.E0));
#223=VECTOR('',#222,3.5E0);
#224=CARTESIAN_POINT('',(-6.5E0,-3.11032444E0,-2.640013584E1));
#225=LINE('',#224,#223);
#226=CURVE_STYLE('',#22,POSITIVE_LENGTH_MEASURE(2.E-2),#9);
#227=PRESENTATION_STYLE_ASSIGNMENT((#226));
#228=STYLED_ITEM('',(#227),#225);
#229=DIRECTION('',(0.E0,-1.E0,0.E0));
#230=VECTOR('',#229,4.9E0);
#231=CARTESIAN_POINT('',(-6.5E0,-1.71032444E0,-1.540013584E1));
#232=LINE('',#231,#230);
#233=CURVE_STYLE('',#22,POSITIVE_LENGTH_MEASURE(2.E-2),#9);
#234=PRESENTATION_STYLE_ASSIGNMENT((#233));
#235=STYLED_ITEM('',(#234),#232);
#236=DIRECTION('',(1.E0,0.E0,0.E0));
#237=VECTOR('',#236,6.3E0);
#238=CARTESIAN_POINT('',(-3.15E0,-5.11032444E0,-1.540013584E1));
#239=LINE('',#238,#237);
#240=CURVE_STYLE('',#22,POSITIVE_LENGTH_MEASURE(2.E-2),#9);
#241=PRESENTATION_STYLE_ASSIGNMENT((#240));
#242=STYLED_ITEM('',(#241),#239);
#243=DIRECTION('',(0.E0,1.E0,0.E0));
#244=VECTOR('',#243,1.5E0);
#245=CARTESIAN_POINT('',(-3.15E0,-6.61032444E0,-1.540013584E1));
#246=LINE('',#245,#244);
#247=CURVE_STYLE('',#22,POSITIVE_LENGTH_MEASURE(2.E-2),#9);
#248=PRESENTATION_STYLE_ASSIGNMENT((#247));
#249=STYLED_ITEM('',(#248),#246);
#250=DIRECTION('',(0.E0,1.E0,0.E0));
#251=VECTOR('',#250,1.5E0);
#252=CARTESIAN_POINT('',(3.15E0,-6.61032444E0,-1.540013584E1));
#253=LINE('',#252,#251);
#254=CURVE_STYLE('',#22,POSITIVE_LENGTH_MEASURE(2.E-2),#9);
#255=PRESENTATION_STYLE_ASSIGNMENT((#254));
#256=STYLED_ITEM('',(#255),#253);
#257=DIRECTION('',(0.E0,0.E0,1.E0));
#258=VECTOR('',#257,8.097757843357E-1);
#259=CARTESIAN_POINT('',(3.15E0,-5.11032444E0,-1.620991162434E1));
#260=LINE('',#259,#258);
#261=CURVE_STYLE('',#22,POSITIVE_LENGTH_MEASURE(2.E-2),#9);
#262=PRESENTATION_STYLE_ASSIGNMENT((#261));
#263=STYLED_ITEM('',(#262),#260);
#264=DIRECTION('',(-1.E0,0.E0,0.E0));
#265=VECTOR('',#264,1.E0);
#266=CARTESIAN_POINT('',(4.15E0,-5.11032444E0,-1.620991162434E1));
#267=LINE('',#266,#265);
#268=CURVE_STYLE('',#22,POSITIVE_LENGTH_MEASURE(2.E-2),#9);
#269=PRESENTATION_STYLE_ASSIGNMENT((#268));
#270=STYLED_ITEM('',(#269),#267);
#271=DIRECTION('',(0.E0,0.E0,1.E0));
#272=VECTOR('',#271,8.3E0);
#273=CARTESIAN_POINT('',(4.15E0,-5.11032444E0,-2.450991162434E1));
#274=LINE('',#273,#272);
#275=CURVE_STYLE('',#22,POSITIVE_LENGTH_MEASURE(2.E-2),#9);
#276=PRESENTATION_STYLE_ASSIGNMENT((#275));
#277=STYLED_ITEM('',(#276),#274);
#278=DIRECTION('',(1.E0,0.E0,0.E0));
#279=VECTOR('',#278,8.3E0);
#280=CARTESIAN_POINT('',(-4.15E0,-5.11032444E0,-2.450991162434E1));
#281=LINE('',#280,#279);
#282=CURVE_STYLE('',#22,POSITIVE_LENGTH_MEASURE(2.E-2),#9);
#283=PRESENTATION_STYLE_ASSIGNMENT((#282));
#284=STYLED_ITEM('',(#283),#281);
#285=DIRECTION('',(0.E0,0.E0,-1.E0));
#286=VECTOR('',#285,8.3E0);
#287=CARTESIAN_POINT('',(-4.15E0,-5.11032444E0,-1.620991162434E1));
#288=LINE('',#287,#286);
#289=CURVE_STYLE('',#22,POSITIVE_LENGTH_MEASURE(2.E-2),#9);
#290=PRESENTATION_STYLE_ASSIGNMENT((#289));
#291=STYLED_ITEM('',(#290),#288);
#292=DIRECTION('',(-1.E0,0.E0,0.E0));
#293=VECTOR('',#292,1.E0);
#294=CARTESIAN_POINT('',(-3.15E0,-5.11032444E0,-1.620991162434E1));
#295=LINE('',#294,#293);
#296=CURVE_STYLE('',#22,POSITIVE_LENGTH_MEASURE(2.E-2),#9);
#297=PRESENTATION_STYLE_ASSIGNMENT((#296));
#298=STYLED_ITEM('',(#297),#295);
#299=DIRECTION('',(0.E0,0.E0,-1.E0));
#300=VECTOR('',#299,8.097757843357E-1);
#301=CARTESIAN_POINT('',(-3.15E0,-5.11032444E0,-1.540013584E1));
#302=LINE('',#301,#300);
#303=CURVE_STYLE('',#22,POSITIVE_LENGTH_MEASURE(2.E-2),#9);
#304=PRESENTATION_STYLE_ASSIGNMENT((#303));
#305=STYLED_ITEM('',(#304),#302);
#306=DIRECTION('',(0.E0,1.E0,0.E0));
#307=VECTOR('',#306,1.5E0);
#308=CARTESIAN_POINT('',(3.15E0,-6.61032444E0,-1.620991162434E1));
#309=LINE('',#308,#307);
#310=CURVE_STYLE('',#22,POSITIVE_LENGTH_MEASURE(2.E-2),#9);
#311=PRESENTATION_STYLE_ASSIGNMENT((#310));
#312=STYLED_ITEM('',(#311),#309);
#313=DIRECTION('',(0.E0,0.E0,-1.E0));
#314=VECTOR('',#313,8.097757843357E-1);
#315=CARTESIAN_POINT('',(-3.15E0,-6.61032444E0,-1.540013584E1));
#316=LINE('',#315,#314);
#317=CURVE_STYLE('',#22,POSITIVE_LENGTH_MEASURE(2.E-2),#9);
#318=PRESENTATION_STYLE_ASSIGNMENT((#317));
#319=STYLED_ITEM('',(#318),#316);
#320=DIRECTION('',(-1.E0,0.E0,0.E0));
#321=VECTOR('',#320,1.E0);
#322=CARTESIAN_POINT('',(-3.15E0,-6.61032444E0,-1.620991162434E1));
#323=LINE('',#322,#321);
#324=CURVE_STYLE('',#22,POSITIVE_LENGTH_MEASURE(2.E-2),#9);
#325=PRESENTATION_STYLE_ASSIGNMENT((#324));
#326=STYLED_ITEM('',(#325),#323);
#327=DIRECTION('',(0.E0,0.E0,-1.E0));
#328=VECTOR('',#327,8.3E0);
#329=CARTESIAN_POINT('',(-4.15E0,-6.61032444E0,-1.620991162434E1));
#330=LINE('',#329,#328);
#331=CURVE_STYLE('',#22,POSITIVE_LENGTH_MEASURE(2.E-2),#9);
#332=PRESENTATION_STYLE_ASSIGNMENT((#331));
#333=STYLED_ITEM('',(#332),#330);
#334=DIRECTION('',(1.E0,0.E0,0.E0));
#335=VECTOR('',#334,8.3E0);
#336=CARTESIAN_POINT('',(-4.15E0,-6.61032444E0,-2.450991162434E1));
#337=LINE('',#336,#335);
#338=CURVE_STYLE('',#22,POSITIVE_LENGTH_MEASURE(2.E-2),#9);
#339=PRESENTATION_STYLE_ASSIGNMENT((#338));
#340=STYLED_ITEM('',(#339),#337);
#341=DIRECTION('',(0.E0,0.E0,1.E0));
#342=VECTOR('',#341,8.3E0);
#343=CARTESIAN_POINT('',(4.15E0,-6.61032444E0,-2.450991162434E1));
#344=LINE('',#343,#342);
#345=CURVE_STYLE('',#22,POSITIVE_LENGTH_MEASURE(2.E-2),#9);
#346=PRESENTATION_STYLE_ASSIGNMENT((#345));
#347=STYLED_ITEM('',(#346),#344);
#348=DIRECTION('',(-1.E0,0.E0,0.E0));
#349=VECTOR('',#348,1.E0);
#350=CARTESIAN_POINT('',(4.15E0,-6.61032444E0,-1.620991162434E1));
#351=LINE('',#350,#349);
#352=CURVE_STYLE('',#22,POSITIVE_LENGTH_MEASURE(2.E-2),#9);
#353=PRESENTATION_STYLE_ASSIGNMENT((#352));
#354=STYLED_ITEM('',(#353),#351);
#355=DIRECTION('',(0.E0,0.E0,-1.E0));
#356=VECTOR('',#355,8.097757843357E-1);
#357=CARTESIAN_POINT('',(3.15E0,-6.61032444E0,-1.540013584E1));
#358=LINE('',#357,#356);
#359=CURVE_STYLE('',#22,POSITIVE_LENGTH_MEASURE(2.E-2),#9);
#360=PRESENTATION_STYLE_ASSIGNMENT((#359));
#361=STYLED_ITEM('',(#360),#358);
#362=DIRECTION('',(-1.E0,0.E0,0.E0));
#363=VECTOR('',#362,3.35E0);
#364=CARTESIAN_POINT('',(6.5E0,-6.61032444E0,-1.540013584E1));
#365=LINE('',#364,#363);
#366=CURVE_STYLE('',#22,POSITIVE_LENGTH_MEASURE(2.E-2),#9);
#367=PRESENTATION_STYLE_ASSIGNMENT((#366));
#368=STYLED_ITEM('',(#367),#365);
#369=DIRECTION('',(0.E0,0.E0,1.E0));
#370=VECTOR('',#369,1.1E1);
#371=CARTESIAN_POINT('',(6.5E0,-6.61032444E0,-2.640013584E1));
#372=LINE('',#371,#370);
#373=CURVE_STYLE('',#22,POSITIVE_LENGTH_MEASURE(2.E-2),#9);
#374=PRESENTATION_STYLE_ASSIGNMENT((#373));
#375=STYLED_ITEM('',(#374),#372);
#376=DIRECTION('',(1.E0,0.E0,0.E0));
#377=VECTOR('',#376,1.3E1);
#378=CARTESIAN_POINT('',(-6.5E0,-6.61032444E0,-2.640013584E1));
#379=LINE('',#378,#377);
#380=CURVE_STYLE('',#22,POSITIVE_LENGTH_MEASURE(2.E-2),#9);
#381=PRESENTATION_STYLE_ASSIGNMENT((#380));
#382=STYLED_ITEM('',(#381),#379);
#383=DIRECTION('',(0.E0,0.E0,-1.E0));
#384=VECTOR('',#383,1.1E1);
#385=CARTESIAN_POINT('',(-6.5E0,-6.61032444E0,-1.540013584E1));
#386=LINE('',#385,#384);
#387=CURVE_STYLE('',#22,POSITIVE_LENGTH_MEASURE(2.E-2),#9);
#388=PRESENTATION_STYLE_ASSIGNMENT((#387));
#389=STYLED_ITEM('',(#388),#386);
#390=DIRECTION('',(-1.E0,0.E0,0.E0));
#391=VECTOR('',#390,3.35E0);
#392=CARTESIAN_POINT('',(-3.15E0,-6.61032444E0,-1.540013584E1));
#393=LINE('',#392,#391);
#394=CURVE_STYLE('',#22,POSITIVE_LENGTH_MEASURE(2.E-2),#9);
#395=PRESENTATION_STYLE_ASSIGNMENT((#394));
#396=STYLED_ITEM('',(#395),#393);
#397=DIRECTION('',(0.E0,1.E0,0.E0));
#398=VECTOR('',#397,1.5E0);
#399=CARTESIAN_POINT('',(-3.15E0,-6.61032444E0,-1.620991162434E1));
#400=LINE('',#399,#398);
#401=CURVE_STYLE('',#22,POSITIVE_LENGTH_MEASURE(2.E-2),#9);
#402=PRESENTATION_STYLE_ASSIGNMENT((#401));
#403=STYLED_ITEM('',(#402),#400);
#404=DIRECTION('',(0.E0,1.E0,0.E0));
#405=VECTOR('',#404,1.5E0);
#406=CARTESIAN_POINT('',(-4.15E0,-6.61032444E0,-1.620991162434E1));
#407=LINE('',#406,#405);
#408=CURVE_STYLE('',#22,POSITIVE_LENGTH_MEASURE(2.E-2),#9);
#409=PRESENTATION_STYLE_ASSIGNMENT((#408));
#410=STYLED_ITEM('',(#409),#407);
#411=DIRECTION('',(0.E0,1.E0,0.E0));
#412=VECTOR('',#411,1.5E0);
#413=CARTESIAN_POINT('',(-4.15E0,-6.61032444E0,-2.450991162434E1));
#414=LINE('',#413,#412);
#415=CURVE_STYLE('',#22,POSITIVE_LENGTH_MEASURE(2.E-2),#9);
#416=PRESENTATION_STYLE_ASSIGNMENT((#415));
#417=STYLED_ITEM('',(#416),#414);
#418=DIRECTION('',(0.E0,1.E0,0.E0));
#419=VECTOR('',#418,1.5E0);
#420=CARTESIAN_POINT('',(4.15E0,-6.61032444E0,-2.450991162434E1));
#421=LINE('',#420,#419);
#422=CURVE_STYLE('',#22,POSITIVE_LENGTH_MEASURE(2.E-2),#9);
#423=PRESENTATION_STYLE_ASSIGNMENT((#422));
#424=STYLED_ITEM('',(#423),#421);
#425=DIRECTION('',(0.E0,1.E0,0.E0));
#426=VECTOR('',#425,1.5E0);
#427=CARTESIAN_POINT('',(4.15E0,-6.61032444E0,-1.620991162434E1));
#428=LINE('',#427,#426);
#429=CURVE_STYLE('',#22,POSITIVE_LENGTH_MEASURE(2.E-2),#9);
#430=PRESENTATION_STYLE_ASSIGNMENT((#429));
#431=STYLED_ITEM('',(#430),#428);
#432=DIRECTION('',(0.E0,-1.E0,0.E0));
#433=VECTOR('',#432,3.5E0);
#434=CARTESIAN_POINT('',(6.5E0,-3.11032444E0,-2.640013584E1));
#435=LINE('',#434,#433);
#436=CURVE_STYLE('',#22,POSITIVE_LENGTH_MEASURE(2.E-2),#9);
#437=PRESENTATION_STYLE_ASSIGNMENT((#436));
#438=STYLED_ITEM('',(#437),#435);
#439=DIRECTION('',(0.E0,1.E0,0.E0));
#440=VECTOR('',#439,4.9E0);
#441=CARTESIAN_POINT('',(6.5E0,-6.61032444E0,-1.540013584E1));
#442=LINE('',#441,#440);
#443=CURVE_STYLE('',#22,POSITIVE_LENGTH_MEASURE(2.E-2),#9);
#444=PRESENTATION_STYLE_ASSIGNMENT((#443));
#445=STYLED_ITEM('',(#444),#442);
#446=DIRECTION('',(0.E0,-1.E0,0.E0));
#447=VECTOR('',#446,1.4E0);
#448=CARTESIAN_POINT('',(6.5E0,-1.71032444E0,-3.040013584E1));
#449=LINE('',#448,#447);
#450=CURVE_STYLE('',#22,POSITIVE_LENGTH_MEASURE(2.E-2),#9);
#451=PRESENTATION_STYLE_ASSIGNMENT((#450));
#452=STYLED_ITEM('',(#451),#449);
#453=DIRECTION('',(0.E0,-1.E0,0.E0));
#454=VECTOR('',#453,1.4E0);
#455=CARTESIAN_POINT('',(2.5E1,-1.71032444E0,-3.040013584E1));
#456=LINE('',#455,#454);
#457=CURVE_STYLE('',#22,POSITIVE_LENGTH_MEASURE(2.E-2),#9);
#458=PRESENTATION_STYLE_ASSIGNMENT((#457));
#459=STYLED_ITEM('',(#458),#456);
#460=DIRECTION('',(0.E0,-1.E0,0.E0));
#461=VECTOR('',#460,1.4E0);
#462=CARTESIAN_POINT('',(2.5E1,-1.71032444E0,-3.740013584E1));
#463=LINE('',#462,#461);
#464=CURVE_STYLE('',#22,POSITIVE_LENGTH_MEASURE(2.E-2),#9);
#465=PRESENTATION_STYLE_ASSIGNMENT((#464));
#466=STYLED_ITEM('',(#465),#463);
#467=DIRECTION('',(0.E0,-1.E0,0.E0));
#468=VECTOR('',#467,1.4E0);
#469=CARTESIAN_POINT('',(-2.5E1,-1.71032444E0,-3.740013584E1));
#470=LINE('',#469,#468);
#471=CURVE_STYLE('',#22,POSITIVE_LENGTH_MEASURE(2.E-2),#9);
#472=PRESENTATION_STYLE_ASSIGNMENT((#471));
#473=STYLED_ITEM('',(#472),#470);
#474=DIRECTION('',(0.E0,-1.E0,0.E0));
#475=VECTOR('',#474,1.4E0);
#476=CARTESIAN_POINT('',(-2.5E1,-1.71032444E0,-3.040013584E1));
#477=LINE('',#476,#475);
#478=CURVE_STYLE('',#22,POSITIVE_LENGTH_MEASURE(2.E-2),#9);
#479=PRESENTATION_STYLE_ASSIGNMENT((#478));
#480=STYLED_ITEM('',(#479),#477);
#481=DIRECTION('',(0.E0,-1.E0,0.E0));
#482=VECTOR('',#481,1.4E0);
#483=CARTESIAN_POINT('',(-6.5E0,-1.71032444E0,-3.040013584E1));
#484=LINE('',#483,#482);
#485=CURVE_STYLE('',#22,POSITIVE_LENGTH_MEASURE(2.E-2),#9);
#486=PRESENTATION_STYLE_ASSIGNMENT((#485));
#487=STYLED_ITEM('',(#486),#484);
#488=CARTESIAN_POINT('',(-6.5E0,-6.61032444E0,-1.540013584E1));
#489=CARTESIAN_POINT('',(-6.5E0,-6.61032444E0,-2.640013584E1));
#490=VERTEX_POINT('',#488);
#491=VERTEX_POINT('',#489);
#492=CARTESIAN_POINT('',(6.5E0,-6.61032444E0,-2.640013584E1));
#493=VERTEX_POINT('',#492);
#494=CARTESIAN_POINT('',(6.5E0,-6.61032444E0,-1.540013584E1));
#495=VERTEX_POINT('',#494);
#496=CARTESIAN_POINT('',(-3.15E0,-5.11032444E0,-1.620991162434E1));
#497=CARTESIAN_POINT('',(-4.15E0,-5.11032444E0,-1.620991162434E1));
#498=VERTEX_POINT('',#496);
#499=VERTEX_POINT('',#497);
#500=CARTESIAN_POINT('',(-4.15E0,-5.11032444E0,-2.450991162434E1));
#501=VERTEX_POINT('',#500);
#502=CARTESIAN_POINT('',(4.15E0,-5.11032444E0,-2.450991162434E1));
#503=VERTEX_POINT('',#502);
#504=CARTESIAN_POINT('',(4.15E0,-5.11032444E0,-1.620991162434E1));
#505=VERTEX_POINT('',#504);
#506=CARTESIAN_POINT('',(3.15E0,-5.11032444E0,-1.620991162434E1));
#507=VERTEX_POINT('',#506);
#508=CARTESIAN_POINT('',(-3.15E0,-5.11032444E0,-1.540013584E1));
#509=CARTESIAN_POINT('',(3.15E0,-5.11032444E0,-1.540013584E1));
#510=VERTEX_POINT('',#508);
#511=VERTEX_POINT('',#509);
#512=CARTESIAN_POINT('',(-3.15E0,-6.61032444E0,-1.540013584E1));
#513=VERTEX_POINT('',#512);
#514=CARTESIAN_POINT('',(3.15E0,-6.61032444E0,-1.540013584E1));
#515=VERTEX_POINT('',#514);
#516=CARTESIAN_POINT('',(-3.15E0,-6.61032444E0,-1.620991162434E1));
#517=VERTEX_POINT('',#516);
#518=CARTESIAN_POINT('',(-4.15E0,-6.61032444E0,-1.620991162434E1));
#519=VERTEX_POINT('',#518);
#520=CARTESIAN_POINT('',(-4.15E0,-6.61032444E0,-2.450991162434E1));
#521=VERTEX_POINT('',#520);
#522=CARTESIAN_POINT('',(4.15E0,-6.61032444E0,-2.450991162434E1));
#523=VERTEX_POINT('',#522);
#524=CARTESIAN_POINT('',(4.15E0,-6.61032444E0,-1.620991162434E1));
#525=VERTEX_POINT('',#524);
#526=CARTESIAN_POINT('',(3.15E0,-6.61032444E0,-1.620991162434E1));
#527=VERTEX_POINT('',#526);
#528=CARTESIAN_POINT('',(-2.03500036E1,-1.71032444E0,-3.440013584E1));
#529=CARTESIAN_POINT('',(-2.36500036E1,-1.71032444E0,-3.440013584E1));
#530=VERTEX_POINT('',#528);
#531=VERTEX_POINT('',#529);
#532=CARTESIAN_POINT('',(2.36499973E1,-1.71032444E0,-3.440013584E1));
#533=CARTESIAN_POINT('',(2.03499973E1,-1.71032444E0,-3.440013584E1));
#534=VERTEX_POINT('',#532);
#535=VERTEX_POINT('',#533);
#536=CARTESIAN_POINT('',(2.5E1,-1.71032444E0,-3.740013584E1));
#537=CARTESIAN_POINT('',(2.5E1,-1.71032444E0,-3.040013584E1));
#538=VERTEX_POINT('',#536);
#539=VERTEX_POINT('',#537);
#540=CARTESIAN_POINT('',(6.5E0,-1.71032444E0,-3.040013584E1));
#541=VERTEX_POINT('',#540);
#542=CARTESIAN_POINT('',(6.5E0,-1.71032444E0,-1.540013584E1));
#543=VERTEX_POINT('',#542);
#544=CARTESIAN_POINT('',(-6.5E0,-1.71032444E0,-1.540013584E1));
#545=VERTEX_POINT('',#544);
#546=CARTESIAN_POINT('',(-6.5E0,-1.71032444E0,-3.040013584E1));
#547=VERTEX_POINT('',#546);
#548=CARTESIAN_POINT('',(-2.5E1,-1.71032444E0,-3.040013584E1));
#549=VERTEX_POINT('',#548);
#550=CARTESIAN_POINT('',(-2.5E1,-1.71032444E0,-3.740013584E1));
#551=VERTEX_POINT('',#550);
#552=CARTESIAN_POINT('',(-2.03500036E1,-3.11032444E0,-3.440013584E1));
#553=CARTESIAN_POINT('',(-2.36500036E1,-3.11032444E0,-3.440013584E1));
#554=VERTEX_POINT('',#552);
#555=VERTEX_POINT('',#553);
#556=CARTESIAN_POINT('',(2.36499973E1,-3.11032444E0,-3.440013584E1));
#557=CARTESIAN_POINT('',(2.03499973E1,-3.11032444E0,-3.440013584E1));
#558=VERTEX_POINT('',#556);
#559=VERTEX_POINT('',#557);
#560=CARTESIAN_POINT('',(2.5E1,-3.11032444E0,-3.740013584E1));
#561=CARTESIAN_POINT('',(2.5E1,-3.11032444E0,-3.040013584E1));
#562=VERTEX_POINT('',#560);
#563=VERTEX_POINT('',#561);
#564=CARTESIAN_POINT('',(6.5E0,-3.11032444E0,-3.040013584E1));
#565=VERTEX_POINT('',#564);
#566=CARTESIAN_POINT('',(-6.5E0,-3.11032444E0,-3.040013584E1));
#567=CARTESIAN_POINT('',(-2.5E1,-3.11032444E0,-3.040013584E1));
#568=VERTEX_POINT('',#566);
#569=VERTEX_POINT('',#567);
#570=CARTESIAN_POINT('',(-2.5E1,-3.11032444E0,-3.740013584E1));
#571=VERTEX_POINT('',#570);
#572=CARTESIAN_POINT('',(-6.5E0,-3.11032444E0,-2.640013584E1));
#573=CARTESIAN_POINT('',(6.5E0,-3.11032444E0,-2.640013584E1));
#574=VERTEX_POINT('',#572);
#575=VERTEX_POINT('',#573);
#576=CARTESIAN_POINT('',(0.E0,-1.71032444E0,0.E0));
#577=DIRECTION('',(0.E0,-1.E0,0.E0));
#578=DIRECTION('',(1.E0,0.E0,0.E0));
#579=AXIS2_PLACEMENT_3D('',#576,#577,#578);
#580=PLANE('',#579);
#582=ORIENTED_EDGE('',*,*,#581,.T.);
#584=ORIENTED_EDGE('',*,*,#583,.T.);
#586=ORIENTED_EDGE('',*,*,#585,.T.);
#588=ORIENTED_EDGE('',*,*,#587,.T.);
#590=ORIENTED_EDGE('',*,*,#589,.T.);
#592=ORIENTED_EDGE('',*,*,#591,.T.);
#594=ORIENTED_EDGE('',*,*,#593,.T.);
#596=ORIENTED_EDGE('',*,*,#595,.T.);
#597=EDGE_LOOP('',(#582,#584,#586,#588,#590,#592,#594,#596));
#598=FACE_OUTER_BOUND('',#597,.F.);
#600=ORIENTED_EDGE('',*,*,#599,.T.);
#602=ORIENTED_EDGE('',*,*,#601,.T.);
#603=EDGE_LOOP('',(#600,#602));
#604=FACE_BOUND('',#603,.F.);
#606=ORIENTED_EDGE('',*,*,#605,.T.);
#608=ORIENTED_EDGE('',*,*,#607,.T.);
#609=EDGE_LOOP('',(#606,#608));
#610=FACE_BOUND('',#609,.F.);
#612=CARTESIAN_POINT('',(-2.20000036E1,-1.61032444E0,-3.440013584E1));
#613=DIRECTION('',(0.E0,-1.E0,0.E0));
#614=DIRECTION('',(1.E0,0.E0,0.E0));
#615=AXIS2_PLACEMENT_3D('',#612,#613,#614);
#616=CYLINDRICAL_SURFACE('',#615,1.65E0);
#617=ORIENTED_EDGE('',*,*,#605,.F.);
#619=ORIENTED_EDGE('',*,*,#618,.T.);
#621=ORIENTED_EDGE('',*,*,#620,.T.);
#623=ORIENTED_EDGE('',*,*,#622,.F.);
#624=EDGE_LOOP('',(#617,#619,#621,#623));
#625=FACE_OUTER_BOUND('',#624,.F.);
#627=CARTESIAN_POINT('',(-2.20000036E1,-1.61032444E0,-3.440013584E1));
#628=DIRECTION('',(0.E0,-1.E0,0.E0));
#629=DIRECTION('',(1.E0,0.E0,0.E0));
#630=AXIS2_PLACEMENT_3D('',#627,#628,#629);
#631=CYLINDRICAL_SURFACE('',#630,1.65E0);
#632=ORIENTED_EDGE('',*,*,#607,.F.);
#633=ORIENTED_EDGE('',*,*,#622,.T.);
#635=ORIENTED_EDGE('',*,*,#634,.T.);
#636=ORIENTED_EDGE('',*,*,#618,.F.);
#637=EDGE_LOOP('',(#632,#633,#635,#636));
#638=FACE_OUTER_BOUND('',#637,.F.);
#640=CARTESIAN_POINT('',(0.E0,-3.11032444E0,0.E0));
#641=DIRECTION('',(0.E0,-1.E0,0.E0));
#642=DIRECTION('',(1.E0,0.E0,0.E0));
#643=AXIS2_PLACEMENT_3D('',#640,#641,#642);
#644=PLANE('',#643);
#646=ORIENTED_EDGE('',*,*,#645,.T.);
#648=ORIENTED_EDGE('',*,*,#647,.F.);
#650=ORIENTED_EDGE('',*,*,#649,.F.);
#652=ORIENTED_EDGE('',*,*,#651,.F.);
#654=ORIENTED_EDGE('',*,*,#653,.F.);
#656=ORIENTED_EDGE('',*,*,#655,.F.);
#658=ORIENTED_EDGE('',*,*,#657,.F.);
#660=ORIENTED_EDGE('',*,*,#659,.F.);
#661=EDGE_LOOP('',(#646,#648,#650,#652,#654,#656,#658,#660));
#662=FACE_OUTER_BOUND('',#661,.F.);
#664=ORIENTED_EDGE('',*,*,#663,.F.);
#666=ORIENTED_EDGE('',*,*,#665,.F.);
#667=EDGE_LOOP('',(#664,#666));
#668=FACE_BOUND('',#667,.F.);
#669=ORIENTED_EDGE('',*,*,#620,.F.);
#670=ORIENTED_EDGE('',*,*,#634,.F.);
#671=EDGE_LOOP('',(#669,#670));
#672=FACE_BOUND('',#671,.F.);
#674=CARTESIAN_POINT('',(2.19999973E1,-1.61032444E0,-3.440013584E1));
#675=DIRECTION('',(0.E0,-1.E0,0.E0));
#676=DIRECTION('',(1.E0,0.E0,0.E0));
#677=AXIS2_PLACEMENT_3D('',#674,#675,#676);
#678=CYLINDRICAL_SURFACE('',#677,1.65E0);
#679=ORIENTED_EDGE('',*,*,#599,.F.);
#681=ORIENTED_EDGE('',*,*,#680,.T.);
#682=ORIENTED_EDGE('',*,*,#663,.T.);
#684=ORIENTED_EDGE('',*,*,#683,.F.);
#685=EDGE_LOOP('',(#679,#681,#682,#684));
#686=FACE_OUTER_BOUND('',#685,.F.);
#688=CARTESIAN_POINT('',(2.19999973E1,-1.61032444E0,-3.440013584E1));
#689=DIRECTION('',(0.E0,-1.E0,0.E0));
#690=DIRECTION('',(1.E0,0.E0,0.E0));
#691=AXIS2_PLACEMENT_3D('',#688,#689,#690);
#692=CYLINDRICAL_SURFACE('',#691,1.65E0);
#693=ORIENTED_EDGE('',*,*,#601,.F.);
#694=ORIENTED_EDGE('',*,*,#683,.T.);
#695=ORIENTED_EDGE('',*,*,#665,.T.);
#696=ORIENTED_EDGE('',*,*,#680,.F.);
#697=EDGE_LOOP('',(#693,#694,#695,#696));
#698=FACE_OUTER_BOUND('',#697,.F.);
#700=CARTESIAN_POINT('',(-6.5E0,-4.11032444E0,-2.640013584E1));
#701=DIRECTION('',(0.E0,0.E0,-1.E0));
#702=DIRECTION('',(1.E0,0.E0,0.E0));
#703=AXIS2_PLACEMENT_3D('',#700,#701,#702);
#704=PLANE('',#703);
#705=ORIENTED_EDGE('',*,*,#645,.F.);
#707=ORIENTED_EDGE('',*,*,#706,.T.);
#709=ORIENTED_EDGE('',*,*,#708,.T.);
#711=ORIENTED_EDGE('',*,*,#710,.F.);
#712=EDGE_LOOP('',(#705,#707,#709,#711));
#713=FACE_OUTER_BOUND('',#712,.F.);
#715=CARTESIAN_POINT('',(-6.5E0,-1.61032444E0,-1.540013584E1));
#716=DIRECTION('',(-1.E0,0.E0,0.E0));
#717=DIRECTION('',(0.E0,0.E0,-1.E0));
#718=AXIS2_PLACEMENT_3D('',#715,#716,#717);
#719=PLANE('',#718);
#721=ORIENTED_EDGE('',*,*,#720,.T.);
#723=ORIENTED_EDGE('',*,*,#722,.T.);
#724=ORIENTED_EDGE('',*,*,#706,.F.);
#725=ORIENTED_EDGE('',*,*,#659,.T.);
#727=ORIENTED_EDGE('',*,*,#726,.F.);
#728=ORIENTED_EDGE('',*,*,#589,.F.);
#729=EDGE_LOOP('',(#721,#723,#724,#725,#727,#728));
#730=FACE_OUTER_BOUND('',#729,.F.);
#732=CARTESIAN_POINT('',(6.5E0,-1.61032444E0,-1.540013584E1));
#733=DIRECTION('',(0.E0,0.E0,1.E0));
#734=DIRECTION('',(-1.E0,0.E0,0.E0));
#735=AXIS2_PLACEMENT_3D('',#732,#733,#734);
#736=PLANE('',#735);
#738=ORIENTED_EDGE('',*,*,#737,.F.);
#740=ORIENTED_EDGE('',*,*,#739,.F.);
#742=ORIENTED_EDGE('',*,*,#741,.T.);
#743=ORIENTED_EDGE('',*,*,#720,.F.);
#744=ORIENTED_EDGE('',*,*,#587,.F.);
#746=ORIENTED_EDGE('',*,*,#745,.F.);
#748=ORIENTED_EDGE('',*,*,#747,.T.);
#750=ORIENTED_EDGE('',*,*,#749,.T.);
#751=EDGE_LOOP('',(#738,#740,#742,#743,#744,#746,#748,#750));
#752=FACE_OUTER_BOUND('',#751,.F.);
#754=CARTESIAN_POINT('',(0.E0,-5.11032444E0,0.E0));
#755=DIRECTION('',(0.E0,-1.E0,0.E0));
#756=DIRECTION('',(1.E0,0.E0,0.E0));
#757=AXIS2_PLACEMENT_3D('',#754,#755,#756);
#758=PLANE('',#757);
#759=ORIENTED_EDGE('',*,*,#737,.T.);
#761=ORIENTED_EDGE('',*,*,#760,.F.);
#763=ORIENTED_EDGE('',*,*,#762,.F.);
#765=ORIENTED_EDGE('',*,*,#764,.F.);
#767=ORIENTED_EDGE('',*,*,#766,.F.);
#769=ORIENTED_EDGE('',*,*,#768,.F.);
#771=ORIENTED_EDGE('',*,*,#770,.F.);
#773=ORIENTED_EDGE('',*,*,#772,.F.);
#774=EDGE_LOOP('',(#759,#761,#763,#765,#767,#769,#771,#773));
#775=FACE_OUTER_BOUND('',#774,.F.);
#777=CARTESIAN_POINT('',(3.15E0,-6.61032444E0,-1.620991162434E1));
#778=DIRECTION('',(1.E0,0.E0,0.E0));
#779=DIRECTION('',(0.E0,0.E0,1.E0));
#780=AXIS2_PLACEMENT_3D('',#777,#778,#779);
#781=PLANE('',#780);
#782=ORIENTED_EDGE('',*,*,#749,.F.);
#784=ORIENTED_EDGE('',*,*,#783,.T.);
#786=ORIENTED_EDGE('',*,*,#785,.T.);
#787=ORIENTED_EDGE('',*,*,#760,.T.);
#788=EDGE_LOOP('',(#782,#784,#786,#787));
#789=FACE_OUTER_BOUND('',#788,.F.);
#791=CARTESIAN_POINT('',(0.E0,-6.61032444E0,0.E0));
#792=DIRECTION('',(0.E0,-1.E0,0.E0));
#793=DIRECTION('',(1.E0,0.E0,0.E0));
#794=AXIS2_PLACEMENT_3D('',#791,#792,#793);
#795=PLANE('',#794);
#797=ORIENTED_EDGE('',*,*,#796,.T.);
#799=ORIENTED_EDGE('',*,*,#798,.T.);
#801=ORIENTED_EDGE('',*,*,#800,.T.);
#803=ORIENTED_EDGE('',*,*,#802,.T.);
#805=ORIENTED_EDGE('',*,*,#804,.T.);
#807=ORIENTED_EDGE('',*,*,#806,.T.);
#808=ORIENTED_EDGE('',*,*,#783,.F.);
#809=ORIENTED_EDGE('',*,*,#747,.F.);
#811=ORIENTED_EDGE('',*,*,#810,.F.);
#812=ORIENTED_EDGE('',*,*,#708,.F.);
#813=ORIENTED_EDGE('',*,*,#722,.F.);
#814=ORIENTED_EDGE('',*,*,#741,.F.);
#815=EDGE_LOOP('',(#797,#799,#801,#803,#805,#807,#808,#809,#811,#812,#813,
#814));
#816=FACE_OUTER_BOUND('',#815,.F.);
#818=CARTESIAN_POINT('',(-3.15E0,-6.61032444E0,-1.241053828138E1));
#819=DIRECTION('',(-1.E0,0.E0,0.E0));
#820=DIRECTION('',(0.E0,0.E0,-1.E0));
#821=AXIS2_PLACEMENT_3D('',#818,#819,#820);
#822=PLANE('',#821);
#823=ORIENTED_EDGE('',*,*,#739,.T.);
#824=ORIENTED_EDGE('',*,*,#772,.T.);
#826=ORIENTED_EDGE('',*,*,#825,.F.);
#827=ORIENTED_EDGE('',*,*,#796,.F.);
#828=EDGE_LOOP('',(#823,#824,#826,#827));
#829=FACE_OUTER_BOUND('',#828,.F.);
#831=CARTESIAN_POINT('',(-3.15E0,-6.61032444E0,-1.620991162434E1));
#832=DIRECTION('',(0.E0,0.E0,1.E0));
#833=DIRECTION('',(-1.E0,0.E0,0.E0));
#834=AXIS2_PLACEMENT_3D('',#831,#832,#833);
#835=PLANE('',#834);
#836=ORIENTED_EDGE('',*,*,#798,.F.);
#837=ORIENTED_EDGE('',*,*,#825,.T.);
#838=ORIENTED_EDGE('',*,*,#770,.T.);
#840=ORIENTED_EDGE('',*,*,#839,.F.);
#841=EDGE_LOOP('',(#836,#837,#838,#840));
#842=FACE_OUTER_BOUND('',#841,.F.);
#844=CARTESIAN_POINT('',(-4.15E0,-6.61032444E0,-1.620991162434E1));
#845=DIRECTION('',(-1.E0,0.E0,0.E0));
#846=DIRECTION('',(0.E0,0.E0,-1.E0));
#847=AXIS2_PLACEMENT_3D('',#844,#845,#846);
#848=PLANE('',#847);
#849=ORIENTED_EDGE('',*,*,#800,.F.);
#850=ORIENTED_EDGE('',*,*,#839,.T.);
#851=ORIENTED_EDGE('',*,*,#768,.T.);
#853=ORIENTED_EDGE('',*,*,#852,.F.);
#854=EDGE_LOOP('',(#849,#850,#851,#853));
#855=FACE_OUTER_BOUND('',#854,.F.);
#857=CARTESIAN_POINT('',(-4.15E0,-6.61032444E0,-2.450991162434E1));
#858=DIRECTION('',(0.E0,0.E0,-1.E0));
#859=DIRECTION('',(1.E0,0.E0,0.E0));
#860=AXIS2_PLACEMENT_3D('',#857,#858,#859);
#861=PLANE('',#860);
#862=ORIENTED_EDGE('',*,*,#802,.F.);
#863=ORIENTED_EDGE('',*,*,#852,.T.);
#864=ORIENTED_EDGE('',*,*,#766,.T.);
#866=ORIENTED_EDGE('',*,*,#865,.F.);
#867=EDGE_LOOP('',(#862,#863,#864,#866));
#868=FACE_OUTER_BOUND('',#867,.F.);
#870=CARTESIAN_POINT('',(4.15E0,-6.61032444E0,-2.450991162434E1));
#871=DIRECTION('',(1.E0,0.E0,0.E0));
#872=DIRECTION('',(0.E0,0.E0,1.E0));
#873=AXIS2_PLACEMENT_3D('',#870,#871,#872);
#874=PLANE('',#873);
#875=ORIENTED_EDGE('',*,*,#804,.F.);
#876=ORIENTED_EDGE('',*,*,#865,.T.);
#877=ORIENTED_EDGE('',*,*,#764,.T.);
#879=ORIENTED_EDGE('',*,*,#878,.F.);
#880=EDGE_LOOP('',(#875,#876,#877,#879));
#881=FACE_OUTER_BOUND('',#880,.F.);
#883=CARTESIAN_POINT('',(4.15E0,-6.61032444E0,-1.620991162434E1));
#884=DIRECTION('',(0.E0,0.E0,1.E0));
#885=DIRECTION('',(-1.E0,0.E0,0.E0));
#886=AXIS2_PLACEMENT_3D('',#883,#884,#885);
#887=PLANE('',#886);
#888=ORIENTED_EDGE('',*,*,#806,.F.);
#889=ORIENTED_EDGE('',*,*,#878,.T.);
#890=ORIENTED_EDGE('',*,*,#762,.T.);
#891=ORIENTED_EDGE('',*,*,#785,.F.);
#892=EDGE_LOOP('',(#888,#889,#890,#891));
#893=FACE_OUTER_BOUND('',#892,.F.);
#895=CARTESIAN_POINT('',(6.5E0,-1.61032444E0,-3.040013584E1));
#896=DIRECTION('',(1.E0,0.E0,0.E0));
#897=DIRECTION('',(0.E0,0.E0,1.E0));
#898=AXIS2_PLACEMENT_3D('',#895,#896,#897);
#899=PLANE('',#898);
#900=ORIENTED_EDGE('',*,*,#647,.T.);
#901=ORIENTED_EDGE('',*,*,#710,.T.);
#902=ORIENTED_EDGE('',*,*,#810,.T.);
#903=ORIENTED_EDGE('',*,*,#745,.T.);
#904=ORIENTED_EDGE('',*,*,#585,.F.);
#906=ORIENTED_EDGE('',*,*,#905,.T.);
#907=EDGE_LOOP('',(#900,#901,#902,#903,#904,#906));
#908=FACE_OUTER_BOUND('',#907,.F.);
#910=CARTESIAN_POINT('',(2.5E1,-1.61032444E0,-3.040013584E1));
#911=DIRECTION('',(0.E0,0.E0,1.E0));
#912=DIRECTION('',(-1.E0,0.E0,0.E0));
#913=AXIS2_PLACEMENT_3D('',#910,#911,#912);
#914=PLANE('',#913);
#915=ORIENTED_EDGE('',*,*,#583,.F.);
#917=ORIENTED_EDGE('',*,*,#916,.T.);
#918=ORIENTED_EDGE('',*,*,#649,.T.);
#919=ORIENTED_EDGE('',*,*,#905,.F.);
#920=EDGE_LOOP('',(#915,#917,#918,#919));
#921=FACE_OUTER_BOUND('',#920,.F.);
#923=CARTESIAN_POINT('',(2.5E1,-1.61032444E0,-3.740013584E1));
#924=DIRECTION('',(1.E0,0.E0,0.E0));
#925=DIRECTION('',(0.E0,0.E0,1.E0));
#926=AXIS2_PLACEMENT_3D('',#923,#924,#925);
#927=PLANE('',#926);
#928=ORIENTED_EDGE('',*,*,#581,.F.);
#930=ORIENTED_EDGE('',*,*,#929,.T.);
#931=ORIENTED_EDGE('',*,*,#651,.T.);
#932=ORIENTED_EDGE('',*,*,#916,.F.);
#933=EDGE_LOOP('',(#928,#930,#931,#932));
#934=FACE_OUTER_BOUND('',#933,.F.);
#936=CARTESIAN_POINT('',(-2.5E1,-1.61032444E0,-3.740013584E1));
#937=DIRECTION('',(0.E0,0.E0,-1.E0));
#938=DIRECTION('',(1.E0,0.E0,0.E0));
#939=AXIS2_PLACEMENT_3D('',#936,#937,#938);
#940=PLANE('',#939);
#941=ORIENTED_EDGE('',*,*,#595,.F.);
#943=ORIENTED_EDGE('',*,*,#942,.T.);
#944=ORIENTED_EDGE('',*,*,#653,.T.);
#945=ORIENTED_EDGE('',*,*,#929,.F.);
#946=EDGE_LOOP('',(#941,#943,#944,#945));
#947=FACE_OUTER_BOUND('',#946,.F.);
#949=CARTESIAN_POINT('',(-2.5E1,-1.61032444E0,-3.040013584E1));
#950=DIRECTION('',(-1.E0,0.E0,0.E0));
#951=DIRECTION('',(0.E0,0.E0,-1.E0));
#952=AXIS2_PLACEMENT_3D('',#949,#950,#951);
#953=PLANE('',#952);
#954=ORIENTED_EDGE('',*,*,#593,.F.);
#956=ORIENTED_EDGE('',*,*,#955,.T.);
#957=ORIENTED_EDGE('',*,*,#655,.T.);
#958=ORIENTED_EDGE('',*,*,#942,.F.);
#959=EDGE_LOOP('',(#954,#956,#957,#958));
#960=FACE_OUTER_BOUND('',#959,.F.);
#962=CARTESIAN_POINT('',(-6.5E0,-1.61032444E0,-3.040013584E1));
#963=DIRECTION('',(0.E0,0.E0,1.E0));
#964=DIRECTION('',(-1.E0,0.E0,0.E0));
#965=AXIS2_PLACEMENT_3D('',#962,#963,#964);
#966=PLANE('',#965);
#967=ORIENTED_EDGE('',*,*,#591,.F.);
#968=ORIENTED_EDGE('',*,*,#726,.T.);
#969=ORIENTED_EDGE('',*,*,#657,.T.);
#970=ORIENTED_EDGE('',*,*,#955,.F.);
#971=EDGE_LOOP('',(#967,#968,#969,#970));
#972=FACE_OUTER_BOUND('',#971,.F.);
#976=FILL_AREA_STYLE_COLOUR('',#9);
#977=FILL_AREA_STYLE('',(#976));
#978=SURFACE_STYLE_FILL_AREA(#977);
#979=SURFACE_SIDE_STYLE('',(#978));
#980=SURFACE_STYLE_USAGE(.BOTH.,#979);
#981=PRESENTATION_STYLE_ASSIGNMENT((#980));
#16=STYLED_ITEM('',(#981),#975);
#984=PLANE_ANGLE_MEASURE_WITH_UNIT(PLANE_ANGLE_MEASURE(1.745329251994E-2),#983);
#985=(CONVERSION_BASED_UNIT('DEGREE',#984)NAMED_UNIT(*)PLANE_ANGLE_UNIT());
#987=UNCERTAINTY_MEASURE_WITH_UNIT(LENGTH_MEASURE(1.E-2),#982,
'distance_accuracy_value',
'Maximum model space distance between geometric entities at asserted connectivities');
#990=MECHANICAL_DESIGN_GEOMETRIC_PRESENTATION_REPRESENTATION('',(#25,#33,#41,
#49,#56,#63,#70,#77,#84,#91,#98,#105,#112,#119,#127,#135,#143,#151,#158,#165,
#172,#179,#186,#193,#200,#207,#214,#221,#228,#235,#242,#249,#256,#263,#270,#277,
#284,#291,#298,#305,#312,#319,#326,#333,#340,#347,#354,#361,#368,#375,#382,#389,
#396,#403,#410,#417,#424,#431,#438,#445,#452,#459,#466,#473,#480,#487,#16),
#988);
#991=APPLICATION_CONTEXT('automotive_design');
#992=APPLICATION_PROTOCOL_DEFINITION('international standard',
'automotive_design',2001,#991);
#993=PRODUCT_DEFINITION_CONTEXT('part definition',#991,'design');
#994=PRODUCT_CONTEXT('',#991,'mechanical');
#995=PRODUCT('I-0510-05_REVX01','I-0510-05_REVX01','NOT SPECIFIED',(#994));
#996=PRODUCT_DEFINITION_FORMATION('25','LAST_VERSION',#995);
#1004=DERIVED_UNIT_ELEMENT(#1003,2.E0);
#1005=DERIVED_UNIT((#1004));
#1006=MEASURE_REPRESENTATION_ITEM('surface area measure',AREA_MEASURE(
1.487745698623E3),#1005);
#1011=DERIVED_UNIT_ELEMENT(#1010,3.E0);
#1012=DERIVED_UNIT((#1011));
#1013=MEASURE_REPRESENTATION_ITEM('volume measure',VOLUME_MEASURE(
1.128564257841E3),#1012);
#1017=CARTESIAN_POINT('centre point',(2.394026547484E-7,-3.157573459545E0,
-2.682581603626E1));
#1022=DERIVED_UNIT_ELEMENT(#1021,2.E0);
#1023=DERIVED_UNIT((#1022));
#1024=MEASURE_REPRESENTATION_ITEM('surface area measure',AREA_MEASURE(
1.487745698623E3),#1023);
#1029=DERIVED_UNIT_ELEMENT(#1028,3.E0);
#1030=DERIVED_UNIT((#1029));
#1031=MEASURE_REPRESENTATION_ITEM('volume measure',VOLUME_MEASURE(
1.128564257841E3),#1030);
#1035=CARTESIAN_POINT('centre point',(2.394026547484E-7,-3.157573459545E0,
-2.682581603626E1));
#1040=PRODUCT_RELATED_PRODUCT_CATEGORY('part','',(#995));
#1=DRAUGHTING_PRE_DEFINED_COLOUR('green');
#2=COLOUR_RGB('',1.1E-2,1.2E-2,1.E0);
#3=COLOUR_RGB('',4.1E-1,2.61589E-1,1.12848E-1);
#4=COLOUR_RGB('',5.04854E-1,1.5455E-2,1.5455E-2);
#5=COLOUR_RGB('',5.88235E-1,5.68627E-1,5.4902E-1);
#6=COLOUR_RGB('',6.35294E-1,6.86275E-1,7.4902E-1);
#7=COLOUR_RGB('',6.40777E-1,6.40777E-1,6.40777E-1);
#8=COLOUR_RGB('',6.69062E-1,6.69903E-1,6.55217E-1);
#9=COLOUR_RGB('',7.45098E-1,3.92157E-1,2.94118E-1);
#10=COLOUR_RGB('',9.21569E-1,7.05882E-1,4.70588E-1);
#11=DRAUGHTING_PRE_DEFINED_COLOUR('red');
#12=DRAUGHTING_PRE_DEFINED_COLOUR('yellow');
#13=COLOUR_RGB('',1.E0,1.E0,5.3E-1);
#14=COLOUR_RGB('',1.E0,1.E0,9.49E-1);
#15=DRAUGHTING_PRE_DEFINED_COLOUR('white');
#21=CIRCLE('',#20,1.65E0);
#30=CIRCLE('',#29,1.65E0);
#38=CIRCLE('',#37,1.65E0);
#46=CIRCLE('',#45,1.65E0);
#124=CIRCLE('',#123,1.65E0);
#132=CIRCLE('',#131,1.65E0);
#140=CIRCLE('',#139,1.65E0);
#148=CIRCLE('',#147,1.65E0);
#581=EDGE_CURVE('',#538,#539,#53,.T.);
#583=EDGE_CURVE('',#539,#541,#60,.T.);
#585=EDGE_CURVE('',#541,#543,#67,.T.);
#587=EDGE_CURVE('',#543,#545,#74,.T.);
#589=EDGE_CURVE('',#545,#547,#81,.T.);
#591=EDGE_CURVE('',#547,#549,#88,.T.);
#593=EDGE_CURVE('',#549,#551,#95,.T.);
#595=EDGE_CURVE('',#551,#538,#102,.T.);
#599=EDGE_CURVE('',#534,#535,#38,.T.);
#601=EDGE_CURVE('',#535,#534,#46,.T.);
#605=EDGE_CURVE('',#530,#531,#21,.T.);
#607=EDGE_CURVE('',#531,#530,#30,.T.);
#611=ADVANCED_FACE('',(#598,#604,#610),#580,.F.);
#618=EDGE_CURVE('',#530,#554,#109,.T.);
#620=EDGE_CURVE('',#554,#555,#124,.T.);
#622=EDGE_CURVE('',#531,#555,#116,.T.);
#626=ADVANCED_FACE('',(#625),#616,.F.);
#634=EDGE_CURVE('',#555,#554,#132,.T.);
#639=ADVANCED_FACE('',(#638),#631,.F.);
#645=EDGE_CURVE('',#574,#575,#155,.T.);
#647=EDGE_CURVE('',#565,#575,#162,.T.);
#649=EDGE_CURVE('',#563,#565,#169,.T.);
#651=EDGE_CURVE('',#562,#563,#176,.T.);
#653=EDGE_CURVE('',#571,#562,#183,.T.);
#655=EDGE_CURVE('',#569,#571,#190,.T.);
#657=EDGE_CURVE('',#568,#569,#197,.T.);
#659=EDGE_CURVE('',#574,#568,#204,.T.);
#663=EDGE_CURVE('',#558,#559,#140,.T.);
#665=EDGE_CURVE('',#559,#558,#148,.T.);
#673=ADVANCED_FACE('',(#662,#668,#672),#644,.T.);
#680=EDGE_CURVE('',#534,#558,#211,.T.);
#683=EDGE_CURVE('',#535,#559,#218,.T.);
#687=ADVANCED_FACE('',(#686),#678,.F.);
#699=ADVANCED_FACE('',(#698),#692,.F.);
#706=EDGE_CURVE('',#574,#491,#225,.T.);
#708=EDGE_CURVE('',#491,#493,#379,.T.);
#710=EDGE_CURVE('',#575,#493,#435,.T.);
#714=ADVANCED_FACE('',(#713),#704,.T.);
#720=EDGE_CURVE('',#545,#490,#232,.T.);
#722=EDGE_CURVE('',#490,#491,#386,.T.);
#726=EDGE_CURVE('',#547,#568,#484,.T.);
#731=ADVANCED_FACE('',(#730),#719,.T.);
#737=EDGE_CURVE('',#510,#511,#239,.T.);
#739=EDGE_CURVE('',#513,#510,#246,.T.);
#741=EDGE_CURVE('',#513,#490,#393,.T.);
#745=EDGE_CURVE('',#495,#543,#442,.T.);
#747=EDGE_CURVE('',#495,#515,#365,.T.);
#749=EDGE_CURVE('',#515,#511,#253,.T.);
#753=ADVANCED_FACE('',(#752),#736,.T.);
#760=EDGE_CURVE('',#507,#511,#260,.T.);
#762=EDGE_CURVE('',#505,#507,#267,.T.);
#764=EDGE_CURVE('',#503,#505,#274,.T.);
#766=EDGE_CURVE('',#501,#503,#281,.T.);
#768=EDGE_CURVE('',#499,#501,#288,.T.);
#770=EDGE_CURVE('',#498,#499,#295,.T.);
#772=EDGE_CURVE('',#510,#498,#302,.T.);
#776=ADVANCED_FACE('',(#775),#758,.T.);
#783=EDGE_CURVE('',#515,#527,#358,.T.);
#785=EDGE_CURVE('',#527,#507,#309,.T.);
#790=ADVANCED_FACE('',(#789),#781,.F.);
#796=EDGE_CURVE('',#513,#517,#316,.T.);
#798=EDGE_CURVE('',#517,#519,#323,.T.);
#800=EDGE_CURVE('',#519,#521,#330,.T.);
#802=EDGE_CURVE('',#521,#523,#337,.T.);
#804=EDGE_CURVE('',#523,#525,#344,.T.);
#806=EDGE_CURVE('',#525,#527,#351,.T.);
#810=EDGE_CURVE('',#493,#495,#372,.T.);
#817=ADVANCED_FACE('',(#816),#795,.T.);
#825=EDGE_CURVE('',#517,#498,#400,.T.);
#830=ADVANCED_FACE('',(#829),#822,.F.);
#839=EDGE_CURVE('',#519,#499,#407,.T.);
#843=ADVANCED_FACE('',(#842),#835,.F.);
#852=EDGE_CURVE('',#521,#501,#414,.T.);
#856=ADVANCED_FACE('',(#855),#848,.F.);
#865=EDGE_CURVE('',#523,#503,#421,.T.);
#869=ADVANCED_FACE('',(#868),#861,.F.);
#878=EDGE_CURVE('',#525,#505,#428,.T.);
#882=ADVANCED_FACE('',(#881),#874,.F.);
#894=ADVANCED_FACE('',(#893),#887,.F.);
#905=EDGE_CURVE('',#541,#565,#449,.T.);
#909=ADVANCED_FACE('',(#908),#899,.T.);
#916=EDGE_CURVE('',#539,#563,#456,.T.);
#922=ADVANCED_FACE('',(#921),#914,.T.);
#929=EDGE_CURVE('',#538,#562,#463,.T.);
#935=ADVANCED_FACE('',(#934),#927,.T.);
#942=EDGE_CURVE('',#551,#571,#470,.T.);
#948=ADVANCED_FACE('',(#947),#940,.T.);
#955=EDGE_CURVE('',#549,#569,#477,.T.);
#961=ADVANCED_FACE('',(#960),#953,.T.);
#973=ADVANCED_FACE('',(#972),#966,.T.);
#974=CLOSED_SHELL('',(#611,#626,#639,#673,#687,#699,#714,#731,#753,#776,#790,
#817,#830,#843,#856,#869,#882,#894,#909,#922,#935,#948,#961,#973));
#975=MANIFOLD_SOLID_BREP('',#974);
#982=(LENGTH_UNIT()NAMED_UNIT(*)SI_UNIT(.MILLI.,.METRE.));
#983=(NAMED_UNIT(*)PLANE_ANGLE_UNIT()SI_UNIT($,.RADIAN.));
#986=(NAMED_UNIT(*)SI_UNIT($,.STERADIAN.)SOLID_ANGLE_UNIT());
#988=(GEOMETRIC_REPRESENTATION_CONTEXT(3)GLOBAL_UNCERTAINTY_ASSIGNED_CONTEXT((
#987))GLOBAL_UNIT_ASSIGNED_CONTEXT((#982,#985,#986))REPRESENTATION_CONTEXT
('ID1','3'));
#989=ADVANCED_BREP_SHAPE_REPRESENTATION('',(#975),#988);
#997=PRODUCT_DEFINITION('part definition','',#996,#993);
#998=PRODUCT_DEFINITION_SHAPE('','SHAPE FOR I-0510-05_REVX01.',#997);
#999=SHAPE_ASPECT('','solid data associated with I-0510-05_REVX01',#998,.F.);
#1000=PROPERTY_DEFINITION('',
'shape for solid data with which properties are associated',#999);
#1001=SHAPE_REPRESENTATION('',(#975),#988);
#1002=SHAPE_DEFINITION_REPRESENTATION(#1000,#1001);
#1003=(LENGTH_UNIT()NAMED_UNIT(*)SI_UNIT(.MILLI.,.METRE.));
#1007=PROPERTY_DEFINITION('geometric validation property',
'area of I-0510-05_REVX01',#999);
#1008=REPRESENTATION('surface area',(#1006),#988);
#1009=PROPERTY_DEFINITION_REPRESENTATION(#1007,#1008);
#1010=(LENGTH_UNIT()NAMED_UNIT(*)SI_UNIT(.MILLI.,.METRE.));
#1014=PROPERTY_DEFINITION('geometric validation property',
'volume of I-0510-05_REVX01',#999);
#1015=REPRESENTATION('volume',(#1013),#988);
#1016=PROPERTY_DEFINITION_REPRESENTATION(#1014,#1015);
#1018=PROPERTY_DEFINITION('geometric validation property',
'centroid of I-0510-05_REVX01',#999);
#1019=REPRESENTATION('centroid',(#1017),#988);
#1020=PROPERTY_DEFINITION_REPRESENTATION(#1018,#1019);
#1021=(LENGTH_UNIT()NAMED_UNIT(*)SI_UNIT(.MILLI.,.METRE.));
#1025=PROPERTY_DEFINITION('geometric validation property',
'area of I-0510-05_REVX01',#998);
#1026=REPRESENTATION('surface area',(#1024),#988);
#1027=PROPERTY_DEFINITION_REPRESENTATION(#1025,#1026);
#1028=(LENGTH_UNIT()NAMED_UNIT(*)SI_UNIT(.MILLI.,.METRE.));
#1032=PROPERTY_DEFINITION('geometric validation property',
'volume of I-0510-05_REVX01',#998);
#1033=REPRESENTATION('volume',(#1031),#988);
#1034=PROPERTY_DEFINITION_REPRESENTATION(#1032,#1033);
#1036=PROPERTY_DEFINITION('geometric validation property',
'centroid of I-0510-05_REVX01',#998);
#1037=REPRESENTATION('centroid',(#1035),#988);
#1038=PROPERTY_DEFINITION_REPRESENTATION(#1036,#1037);
#1039=SHAPE_DEFINITION_REPRESENTATION(#998,#989);
ENDSEC;
END-ISO-10303-21;
